<svg width="16" height="16" viewBox="0 0 16 16" fill="none" xmlns="http://www.w3.org/2000/svg">
<path d="M10 6.66665L13.0353 5.14932C13.1369 5.09854 13.2499 5.07457 13.3633 5.07969C13.4768 5.0848 13.5871 5.11882 13.6837 5.17852C13.7804 5.23823 13.8602 5.32164 13.9155 5.42084C13.9709 5.52003 13.9999 5.63173 14 5.74532V10.2547C13.9999 10.3682 13.9709 10.4799 13.9155 10.5791C13.8602 10.6783 13.7804 10.7617 13.6837 10.8215C13.5871 10.8812 13.4768 10.9152 13.3633 10.9203C13.2499 10.9254 13.1369 10.9014 13.0353 10.8507L10 9.33332V6.66665Z" stroke="#ffffff" stroke-width="1.25" stroke-linecap="round" stroke-linejoin="round"/>
<path d="M8.66667 4H3.33333C2.59695 4 2 4.59695 2 5.33333V10.6667C2 11.403 2.59695 12 3.33333 12H8.66667C9.40305 12 10 11.403 10 10.6667V5.33333C10 4.59695 9.40305 4 8.66667 4Z" stroke="#ffffff" stroke-width="1.25" stroke-linecap="round" stroke-linejoin="round"/>
</svg>
