<svg width="16" height="16" viewBox="0 0 16 16" fill="none" xmlns="http://www.w3.org/2000/svg">
<path d="M6 3.33334C6 2.80291 6.21071 2.2942 6.58579 1.91913C6.96086 1.54406 7.46957 1.33334 8 1.33334C8.53043 1.33334 9.03914 1.54406 9.41421 1.91913C9.78929 2.2942 10 2.80291 10 3.33334V6.66668C10 6.86411 9.97082 7.06046 9.91333 7.24934M8.58 8.58268C8.28112 8.67324 7.96518 8.69256 7.65749 8.63908C7.34979 8.58559 7.05891 8.46079 6.80812 8.27468C6.55733 8.08856 6.35361 7.8463 6.21328 7.5673C6.07295 7.2883 5.9999 6.98031 6 6.66801V6.00134" stroke="#2C3E50" stroke-width="1.25" stroke-linecap="round" stroke-linejoin="round"/>
<path d="M3.33325 6.66666C3.33311 7.50889 3.56089 8.33546 3.99246 9.05871C4.42403 9.78197 5.04328 10.375 5.78456 10.7748C6.52584 11.1746 7.3615 11.3664 8.20294 11.3297C9.04437 11.2931 9.8602 11.0294 10.5639 10.5667M11.8986 9.23332C12.4011 8.47177 12.6682 7.57908 12.6666 6.66666" stroke="#2C3E50" stroke-width="1.25" stroke-linecap="round" stroke-linejoin="round"/>
<path d="M5.33325 14H10.6666" stroke="#2C3E50" stroke-width="1.25" stroke-linecap="round" stroke-linejoin="round"/>
<path d="M8 11.3333V14" stroke="#2C3E50" stroke-width="1.25" stroke-linecap="round" stroke-linejoin="round"/>
<path d="M2 2L14 14" stroke="#2C3E50" stroke-width="1.25" stroke-linecap="round" stroke-linejoin="round"/>
</svg>
