<svg width="16" height="16" viewBox="0 0 16 16" fill="none" xmlns="http://www.w3.org/2000/svg">
<path d="M10 3.33334C10 2.22877 9.10457 1.33334 8 1.33334C6.89543 1.33334 6 2.22877 6 3.33334V6.66668C6 7.77125 6.89543 8.66668 8 8.66668C9.10457 8.66668 10 7.77125 10 6.66668V3.33334Z" stroke="#2C3E50" stroke-width="1.25" stroke-linecap="round" stroke-linejoin="round"/>
<path d="M3.33325 6.66666C3.33325 7.90433 3.82492 9.09132 4.70009 9.96649C5.57526 10.8417 6.76224 11.3333 7.99992 11.3333C9.2376 11.3333 10.4246 10.8417 11.2998 9.96649C12.1749 9.09132 12.6666 7.90433 12.6666 6.66666" stroke="#2C3E50" stroke-width="1.25" stroke-linecap="round" stroke-linejoin="round"/>
<path d="M5.33325 14H10.6666" stroke="#2C3E50" stroke-width="1.25" stroke-linecap="round" stroke-linejoin="round"/>
<path d="M8 11.3333V14" stroke="#2C3E50" stroke-width="1.25" stroke-linecap="round" stroke-linejoin="round"/>
</svg>
