<svg width="16" height="16" viewBox="0 0 16 16" fill="none" xmlns="http://www.w3.org/2000/svg">
<path d="M14 7.99999V9.99999C14 10.1768 13.9298 10.3464 13.8047 10.4714C13.6797 10.5964 13.5101 10.6667 13.3333 10.6667H2.66667C2.48986 10.6667 2.32029 10.5964 2.19526 10.4714C2.07024 10.3464 2 10.1768 2 9.99999V3.33332C2 3.15651 2.07024 2.98694 2.19526 2.86192C2.32029 2.73689 2.48986 2.66666 2.66667 2.66666H8.66667" stroke="#2C3E50" stroke-width="1.25" stroke-linecap="round" stroke-linejoin="round"/>
<path d="M4.66675 13.3333H11.3334" stroke="#2C3E50" stroke-width="1.25" stroke-linecap="round" stroke-linejoin="round"/>
<path d="M6 10.6667V13.3333" stroke="#2C3E50" stroke-width="1.25" stroke-linecap="round" stroke-linejoin="round"/>
<path d="M10 10.6667V13.3333" stroke="#2C3E50" stroke-width="1.25" stroke-linecap="round" stroke-linejoin="round"/>
<path d="M11.3333 2.66666H13.9999V5.33332" stroke="#2C3E50" stroke-width="1.25" stroke-linecap="round" stroke-linejoin="round"/>
<path d="M10.6667 5.99999L14.0001 2.66666" stroke="#2C3E50" stroke-width="1.25" stroke-linecap="round" stroke-linejoin="round"/>
</svg>
