<svg width="600" height="600" viewBox="0 0 600 600" fill="none" xmlns="http://www.w3.org/2000/svg">
<circle cx="300" cy="300" r="299.5" fill="#212529" stroke="#212529"/>
<path d="M385.546 160.361C385.546 210.941 346.868 251.221 300.023 251.221C253.179 251.221 214.5 210.941 214.5 160.361C214.5 109.78 253.179 69.5 300.023 69.5C346.868 69.5 385.546 109.78 385.546 160.361Z" fill="white" stroke="white" stroke-width="15"/>
<path d="M514.546 374.361C514.546 424.941 475.868 465.221 429.023 465.221C382.179 465.221 343.5 424.941 343.5 374.361C343.5 323.78 382.179 283.5 429.023 283.5C475.868 283.5 514.546 323.78 514.546 374.361Z" fill="white" stroke="white" stroke-width="15"/>
<path d="M255.546 374.361C255.546 424.941 216.868 465.221 170.023 465.221C123.179 465.221 84.5 424.941 84.5 374.361C84.5 323.78 123.179 283.5 170.023 283.5C216.868 283.5 255.546 323.78 255.546 374.361Z" fill="white" stroke="white" stroke-width="15"/>
</svg>
